<?xml version="1.0" encoding="UTF-8" standalone="no"?>
<!-- Generator: Adobe Illustrator 16.0.0, SVG Export Plug-In . SVG Version: 6.00 Build 0)  -->

<svg
   xmlns:dc="http://purl.org/dc/elements/1.1/"
   xmlns:cc="http://creativecommons.org/ns#"
   xmlns:rdf="http://www.w3.org/1999/02/22-rdf-syntax-ns#"
   xmlns:svg="http://www.w3.org/2000/svg"
   xmlns="http://www.w3.org/2000/svg"
   xmlns:sodipodi="http://sodipodi.sourceforge.net/DTD/sodipodi-0.dtd"
   xmlns:inkscape="http://www.inkscape.org/namespaces/inkscape"
   version="1.1"
   id="Capa_1"
   x="0px"
   y="0px"
   width="402pt"
   height="237pt"
   viewBox="0 0 502.49998 296.24998"
   xml:space="preserve"
   inkscape:version="0.91 r13725"
   sodipodi:docname="logo1.svg"><metadata
     id="metadata41"><rdf:RDF><cc:Work
         rdf:about=""><dc:format>image/svg+xml</dc:format><dc:type
           rdf:resource="http://purl.org/dc/dcmitype/StillImage" /><dc:title></dc:title></cc:Work></rdf:RDF></metadata><defs
     id="defs39" /><sodipodi:namedview
     pagecolor="#ffffff"
     bordercolor="#666666"
     borderopacity="1"
     objecttolerance="10"
     gridtolerance="10"
     guidetolerance="10"
     inkscape:pageopacity="0"
     inkscape:pageshadow="2"
     inkscape:window-width="1366"
     inkscape:window-height="719"
     id="namedview37"
     showgrid="false"
     inkscape:zoom="0.47109642"
     inkscape:cx="176.18473"
     inkscape:cy="246.23409"
     inkscape:window-x="0"
     inkscape:window-y="25"
     inkscape:window-maximized="1"
     inkscape:current-layer="g3"
     units="pt"
     width="461pt"
     inkscape:showpageshadow="false" /><g
     id="g3"
     style="fill:#666666"
     transform="translate(0,-204.709)"><path
       d="m 62.657,268.735 c -12.739,-24.425 -9.073,-51.524 8.19,-60.534 17.266,-9.007 41.591,3.496 54.332,27.92 12.739,24.423 9.075,51.527 -8.191,60.53 -17.263,9.007 -41.588,-3.493 -54.331,-27.916 z m 7.472,31.869 c -12.748,-24.42 -37.08,-36.914 -54.343,-27.9 -17.268,9.01 -20.934,36.116 -8.188,60.539 12.748,24.425 37.08,36.914 54.348,27.902 17.263,-9.014 20.929,-36.118 8.183,-60.541 z m 15.901,62.777 c 0,3.3 0.34,6.52 0.915,9.633 -19.093,0.971 -27.428,23.489 -27.428,42.816 0,19.946 16.174,36.118 36.119,36.118 18.055,0 48.122,-13.465 52.28,-14.51 l 0,-14.958 0,-119.197 c -0.564,-0.023 -1.127,-0.107 -1.683,-0.107 -29.459,0 -60.203,30.756 -60.203,60.205 z M 229.045,238.91 c -0.114,-13.698 -5.528,-25.377 -15.735,-30.703 -17.269,-9.007 -41.596,3.493 -54.341,27.916 -2.002,3.836 -3.536,7.743 -4.742,11.619 4.627,-5.36 11.397,-8.83 19.039,-8.83 l 55.779,0 0,-0.002 z m 80.185,87.536 c -10.991,10.704 -18.286,25.174 -20.442,41.901 -13.795,11.915 -33.29,17.996 -55.071,17.996 l -31.353,0 0,41.313 c 0,8.261 -6.688,14.958 -14.958,14.958 l -11.343,0 c -8.261,0 -14.958,-6.697 -14.958,-14.958 l 0,-157.666 c 0,-8.258 6.688,-14.958 14.958,-14.958 l 61.664,0 c 44.762,0 71.822,26.53 71.822,64.858 -10e-4,2.257 -0.132,4.416 -0.319,6.556 z m -41.476,-5.755 c 0,-18.494 -12.884,-28.411 -33.507,-28.411 l -31.883,0 0,57.352 32.693,0 c 20.624,0 32.688,-12.316 32.688,-28.401 l 0,-0.539 0.009,0 z m 31.185,58.026 c 0,-35.759 25.175,-63.472 61.134,-64.837 37.589,-1.44 51.964,22.538 57.111,38.044 2.235,6.749 -2.894,14.207 -9.698,16.25 L 333.77,390.24 c 3.468,15.929 14.538,24.222 30.238,24.222 7.5,0 13.693,-1.507 19.704,-4.929 6.189,-3.523 14.585,-3.938 19.91,0.78 l 0.793,0.69 c 5.316,4.719 6.105,13.161 0.616,17.692 -10.669,8.808 -24.403,13.922 -41.499,13.922 -37.14,-0.003 -64.593,-26.064 -64.593,-63.9 z m 34.365,-10.389 48.22,-14.034 c -4.784,-11.936 -19.793,-13.971 -28.315,-11.273 -13.857,4.396 -18.52,12.057 -19.905,25.307 z m 101.937,37.151 c 0,28.604 14.51,37.14 35.983,37.14 6.062,0 11.275,-0.732 15.915,-2.058 6.828,-1.938 11.775,-10.855 11.775,-17.978 l 0,-2.399 c 0,-7.117 -3.548,-10.795 -8.368,-9.576 -2.819,0.709 -5.797,1.102 -8.938,1.102 -7.851,0 -11.309,-3.93 -11.309,-12 l 0,-52.835 16.186,0 c 7.122,0 12.886,-5.766 12.886,-12.879 l 0,-4.233 c 0,-7.113 -5.764,-12.876 -12.886,-12.876 l -16.186,0 0,-18.722 c 0,-7.124 -5.769,-12.888 -12.877,-12.888 l -9.306,0 c -7.127,0 -12.877,5.764 -12.877,12.888 l 0,18.722 -7.388,0 c -4.074,0 -7.379,5.764 -7.379,12.876 l 0,4.233 c 0,7.113 3.305,12.879 7.379,12.879 4.065,0 7.388,0 7.388,0 l 0,58.604 z m -108.154,68.022 -21.949,0 0,-18.585 -6.917,0 0,44.048 6.917,0 0,-18.836 21.949,0 0,18.836 6.931,0 0,-44.048 -6.931,0 0,18.585 z m 59.622,3.327 c 0,12.862 -9.881,22.854 -22.5,22.854 -12.756,0 -22.379,-9.73 -22.379,-22.63 0,-12.872 9.88,-22.855 22.495,-22.846 12.765,10e-4 22.384,9.723 22.384,22.622 z m -7.113,0.225 c 0,-9.335 -6.613,-16.284 -15.387,-16.298 -8.709,0 -15.28,6.897 -15.28,16.06 0,9.344 6.622,16.297 15.396,16.297 8.709,-0.001 15.271,-6.898 15.271,-16.059 z m 9.063,-15.574 14.039,0 0,37.485 7,0 0,-37.485 14.044,0 0,-6.562 -35.083,0 0,6.562 0,0 z m 48.664,18.528 22.831,0 0,-6.506 -22.831,0 0,-12.074 25.529,0 0,-6.511 -32.446,0 0,44.048 32.744,0 0,-6.511 -25.827,0 0,-12.446 z m 40.081,12.382 0,-37.473 -6.94,0 0,44.048 30.495,0 0,-6.575 -23.555,0 0,0 z"
       id="path5"
       style="fill:#f9f9f9"
       inkscape:connector-curvature="0" /></g><g
     id="g7"
     transform="translate(0,-204.709)" /><g
     id="g9"
     transform="translate(0,-204.709)" /><g
     id="g11"
     transform="translate(0,-204.709)" /><g
     id="g13"
     transform="translate(0,-204.709)" /><g
     id="g15"
     transform="translate(0,-204.709)" /><g
     id="g17"
     transform="translate(0,-204.709)" /><g
     id="g19"
     transform="translate(0,-204.709)" /><g
     id="g21"
     transform="translate(0,-204.709)" /><g
     id="g23"
     transform="translate(0,-204.709)" /><g
     id="g25"
     transform="translate(0,-204.709)" /><g
     id="g27"
     transform="translate(0,-204.709)" /><g
     id="g29"
     transform="translate(0,-204.709)" /><g
     id="g31"
     transform="translate(0,-204.709)" /><g
     id="g33"
     transform="translate(0,-204.709)" /><g
     id="g35"
     transform="translate(0,-204.709)" /></svg>