<?xml version="1.0" encoding="UTF-8" standalone="no"?>
<!-- Generator: Adobe Illustrator 16.0.0, SVG Export Plug-In . SVG Version: 6.00 Build 0)  -->

<svg
   xmlns:dc="http://purl.org/dc/elements/1.1/"
   xmlns:cc="http://creativecommons.org/ns#"
   xmlns:rdf="http://www.w3.org/1999/02/22-rdf-syntax-ns#"
   xmlns:svg="http://www.w3.org/2000/svg"
   xmlns="http://www.w3.org/2000/svg"
   xmlns:sodipodi="http://sodipodi.sourceforge.net/DTD/sodipodi-0.dtd"
   xmlns:inkscape="http://www.inkscape.org/namespaces/inkscape"
   version="1.1"
   id="Capa_1"
   x="0px"
   y="0px"
   width="453.121px"
   height="453.121px"
   viewBox="0 0 453.121 453.121"
   style="enable-background:new 0 0 453.121 453.121;"
   xml:space="preserve"
   inkscape:version="0.91 r13725"
   sodipodi:docname="pet-hotel-3.svg"><metadata
     id="metadata49"><rdf:RDF><cc:Work
         rdf:about=""><dc:format>image/svg+xml</dc:format><dc:type
           rdf:resource="http://purl.org/dc/dcmitype/StillImage" /></cc:Work></rdf:RDF></metadata><defs
     id="defs47" /><sodipodi:namedview
     pagecolor="#ffffff"
     bordercolor="#666666"
     borderopacity="1"
     objecttolerance="10"
     gridtolerance="10"
     guidetolerance="10"
     inkscape:pageopacity="0"
     inkscape:pageshadow="2"
     inkscape:window-width="1366"
     inkscape:window-height="719"
     id="namedview45"
     showgrid="false"
     inkscape:zoom="0.52083218"
     inkscape:cx="159.36036"
     inkscape:cy="222.72049"
     inkscape:window-x="0"
     inkscape:window-y="25"
     inkscape:window-maximized="1"
     inkscape:current-layer="g3" /><g
     id="g3"><g
       id="g5"
       style="fill:#0e79b2;fill-opacity:1"><path
         d="M314.949,57.133c-39.902,0-73.996,24.72-87.902,59.646c-13.929-34.926-47.992-59.646-87.887-59.646    c-52.26,0-94.682,42.376-94.682,94.651c0,0-15.541,79.102,88.789,173.781c-4.938-11.664-3.288-23.146,0.315-32.418    c4.92-12.664,21.479-27.715,31.245-37.14c9.59-9.231,20.706-21.236,27.515-32.854c4.542-7.759,9.971-13.335,15.216-17.326    c10.191-7.757,32.46-10.103,44.511-3.816c1.198,0.633,2.376,1.305,3.468,2.001c11.486,7.236,23.364,26.454,31.763,37.122    c0.823,1.052,1.666,2.118,2.519,3.205c8.45,10.643,23.521,26.781,31.382,37.855c7.922,11.167,12.894,23.893,7.917,40.69    c41.33-42.325,80.486-100.91,80.486-171.1C409.592,99.509,367.207,57.133,314.949,57.133z M133.582,243.713    c-15.366,2.925-30.912-11.004-34.729-31.085c-3.809-20.081,5.571-38.732,20.942-41.639c15.366-2.915,30.915,11.004,34.713,31.084    C158.324,222.157,148.962,240.798,133.582,243.713z M194.167,186.472c-18.873,3.58-37.991-13.533-42.668-38.204    c-4.669-24.687,6.833-47.606,25.746-51.176c18.89-3.587,37.998,13.518,42.667,38.205    C224.589,159.967,213.072,182.886,194.167,186.472z M272.33,186.472c-18.896-3.585-30.433-26.505-25.74-51.184    c4.672-24.689,23.79-41.792,42.67-38.204c18.905,3.569,30.417,26.489,25.74,51.176    C310.328,172.938,291.209,190.051,272.33,186.472z M367.654,212.628c-3.819,20.081-19.363,34.01-34.739,31.085    c-15.381-2.915-24.75-21.556-20.926-41.64c3.798-20.081,19.347-33.999,34.713-31.084S371.461,192.547,367.654,212.628z"
         id="path7"
         style="fill:#0e79b2;fill-opacity:1" /><path
         d="M249.032,347.172c-12.237-2.732-26.726-4.657-37.034-1.885c-13.319,3.586-29.183,10.694-45.016,8.12    c19.197,14.482,41.271,29.152,66.826,43.838c0,0,27.705-15.279,61.093-42.938C281.531,356.078,261.621,349.979,249.032,347.172z"
         id="path9"
         style="fill:#0e79b2;fill-opacity:1" /><polygon
         points="192.682,237.472 192.682,329.638 213.473,329.638 213.473,291.065 247.783,291.065 247.783,329.638     268.572,329.638 268.572,237.472 247.783,237.472 247.783,272.881 213.473,272.881 213.473,237.472   "
         id="polygon11"
         style="fill:#0e79b2;fill-opacity:1" /><path
         d="M332.133,14.922c-44.098,0-83.716,23.44-105.008,60.941c-21.307-37.501-60.918-60.941-104.992-60.941    c-66.486,0-120.617,53.88-121.011,120.265c-2.275,13.406-20.076,157.066,230.167,300.799l3.849,2.214l3.896-2.153    c8.733-4.798,214.087-119.855,214.087-300.151C453.121,69.195,398.847,14.922,332.133,14.922z M235.225,420.01    C-7.022,279.208,16.511,138.819,16.773,137.443l0.157-1.531c0-57.996,47.202-105.183,105.213-105.183    c43.282,0,81.613,26.017,97.65,66.283l7.34,18.431l7.34-18.438c16.021-40.268,54.36-66.283,97.67-66.283    c58.001,0,105.186,47.187,105.186,105.183C437.324,293.771,263.362,403.329,235.225,420.01z"
         id="path13"
         style="fill:#0e79b2;fill-opacity:1" /></g></g><g
     id="g15" /><g
     id="g17" /><g
     id="g19" /><g
     id="g21" /><g
     id="g23" /><g
     id="g25" /><g
     id="g27" /><g
     id="g29" /><g
     id="g31" /><g
     id="g33" /><g
     id="g35" /><g
     id="g37" /><g
     id="g39" /><g
     id="g41" /><g
     id="g43" /></svg>